<svg height='200' width='200' xmlns="http://www.w3.org/2000/svg" xmlns:xlink="http://www.w3.org/1999/xlink" xml:space="preserve" version="1.1" style="shape-rendering:geometricPrecision;text-rendering:geometricPrecision;image-rendering:optimizeQuality;" viewBox="0 0 333 333" x="0px" y="0px" fill-rule="evenodd" clip-rule="evenodd"><g><path class="fil0" d="M28 233l0 -133c19,0 35,-15 35,-34l208 0c0,19 15,34 34,34l0 133c-19,0 -34,16 -34,35l-208 0c0,-19 -16,-35 -35,-35zm299 10l0 -153c-22,0 -40,-18 -40,-40l-240 0c0,22 -18,40 -40,40l0 153c22,0 40,18 40,40l240 0c0,-22 18,-40 40,-40z"></path></g></svg>